<?xml version="1.0" encoding="UTF-8"?>
<svg width="130px" height="22px" viewBox="0 0 130 22" version="1.1" xmlns="http://www.w3.org/2000/svg" xmlns:xlink="http://www.w3.org/1999/xlink">
    <!-- Generator: Sketch 51.2 (57519) - http://www.bohemiancoding.com/sketch -->
    <title>pixatori</title>
    <desc>Created with Sketch.</desc>
    <defs>
        <polygon id="path-1" points="0.415958065 0.414070968 20.5454097 0.414070968 20.5454097 21.3870968 0.415958065 21.3870968"></polygon>
        <polygon id="path-3" points="0.39046129 0.244358065 2.51612903 0.244358065 2.51612903 20.7181 0.39046129 20.7181"></polygon>
    </defs>
    <g id="Page-1" stroke="none" stroke-width="1" fill="none" fill-rule="evenodd">
        <g id="pixatori">
            <path d="M47.2771419,21.0382774 C46.8644968,20.9003097 46.4841419,20.4612452 46.5541742,20.2704387 L56.2299484,1.3369871 C56.4119484,0.979696774 56.7788839,0.755341935 57.1793677,0.755341935 C57.580271,0.755341935 57.9472065,0.979696774 58.1296258,1.3369871 L67.4103677,19.548729 C67.578529,19.8791806 67.5630129,20.2737935 67.369271,20.5899871 C67.175529,20.9066 66.8316581,21.0990839 66.460529,21.0990839 L59.7739161,21.0990839 C59.3734323,21.0990839 59.0064968,20.8738903 58.8240774,20.5170194 L56.0206903,15.0159226 C55.7531419,14.4913097 56.0588516,14.0291806 56.5834645,13.7616323 C57.1080774,13.4936645 57.6528194,13.5226 57.9203677,14.0472129 L60.427271,18.9670839 L64.7206258,18.9670839 L57.1793677,4.16889032 L49.014529,20.1916 C48.7876581,20.5753097 48.558271,20.7988258 48.1904968,20.990471 C47.8902387,21.1473097 47.4616581,21.0995032 47.2771419,21.0382774" id="Fill-1" fill="#0099CC" fill-rule="nonzero"></path>
            <path d="M65.1148613,1.85732258 L65.1148613,1.70090323 C65.1148613,1.10667742 65.4583129,0.794258065 66.0839903,0.794258065 L80.8993774,0.794258065 C81.5246355,0.794258065 81.8685065,1.10667742 81.8685065,1.70090323 L81.8685065,1.85732258 C81.8685065,2.42009677 81.5246355,2.73209677 80.8993774,2.73209677 L74.5545387,2.73209677 L74.5545387,20.1734839 C74.5545387,20.8297742 74.2417,21.1426129 73.6160226,21.1426129 L73.3354742,21.1426129 C72.7412484,21.1426129 72.428829,20.8297742 72.428829,20.1734839 L72.428829,2.73209677 L66.0839903,2.73209677 C65.4583129,2.73209677 65.1148613,2.42009677 65.1148613,1.85732258" id="Fill-3" fill="#333333" fill-rule="nonzero"></path>
            <g id="Group-7" transform="translate(83.870968, 0.005452)">
                <g id="Fill-5-Clipped">
                    <mask id="mask-2" fill="white">
                        <use xlink:href="#path-1"></use>
                    </mask>
                    <g id="path-1"></g>
                    <path d="M18.3572161,10.9474258 C18.3572161,5.91516774 15.0443129,2.25797419 10.4490226,2.25797419 C5.85457097,2.25797419 2.60415161,5.8208129 2.60415161,10.8849419 C2.60415161,15.9486516 5.91705484,19.5429419 10.5115065,19.5429419 C15.1059581,19.5429419 18.3572161,16.0107161 18.3572161,10.9474258 M0.415958065,10.9474258 C0.415958065,4.75816774 4.60447419,0.414070968 10.5115065,0.414070968 C16.4504097,0.414070968 20.5454097,4.69610323 20.5454097,10.8849419 C20.5454097,17.0737806 16.3879258,21.3872645 10.4490226,21.3872645 C4.51011935,21.3872645 0.415958065,17.1362645 0.415958065,10.9474258" id="Fill-5" fill="#333333" fill-rule="nonzero" mask="url(#mask-2)"></path>
                </g>
            </g>
            <g id="Group-10" transform="translate(127.483871, 0.424806)">
                <g id="Fill-8-Clipped">
                    <mask id="mask-4" fill="white">
                        <use xlink:href="#path-3"></use>
                    </mask>
                    <g id="path-3"></g>
                    <path d="M0.39046129,19.7485516 L0.39046129,1.2134871 C0.39046129,0.588648387 0.702880645,0.244358065 1.29710645,0.244358065 L1.57849355,0.244358065 C2.2029129,0.244358065 2.51617097,0.588648387 2.51617097,1.2134871 L2.51617097,19.7485516 C2.51617097,20.4048419 2.2029129,20.7181 1.57849355,20.7181 L1.29710645,20.7181 C0.702880645,20.7181 0.39046129,20.4048419 0.39046129,19.7485516" id="Fill-8" fill="#333333" fill-rule="nonzero" mask="url(#mask-4)"></path>
                </g>
            </g>
            <path d="M19.5333806,20.1733581 L19.5333806,1.63829355 C19.5333806,1.01345484 19.8453806,0.669164516 20.4396065,0.669164516 L20.7209935,0.669164516 C21.3458323,0.669164516 21.658671,1.01345484 21.658671,1.63829355 L21.658671,20.1733581 C21.658671,20.8296484 21.3458323,21.1429065 20.7209935,21.1429065 L20.4396065,21.1429065 C19.8453806,21.1429065 19.5333806,20.8296484 19.5333806,20.1733581" id="Fill-11" fill="#333333" fill-rule="nonzero"></path>
            <path d="M29.1248645,1.29463226 L34.9073484,9.32695484 L40.9406065,1.23214839 C41.3150903,0.731858065 41.6275097,0.57543871 41.9718,0.57543871 C42.6905742,0.57543871 43.1598323,1.4196 43.0344452,1.57601935 L36.063929,10.8274065 L43.0344452,20.0486 C43.1598323,20.2050194 42.7220258,21.0483419 41.9088968,21.0483419 C41.5025419,21.0483419 41.0337032,20.8298581 40.7212839,20.4239226 L34.7513484,12.2657935 L28.6564452,20.4864065 C28.2807032,20.9866968 27.9682839,21.1426968 27.6244129,21.1426968 C26.9056387,21.1426968 26.4372194,20.2985355 26.5617677,20.1425355 L33.5947677,10.8274065 L26.8117032,1.66953548 C26.6871548,1.51311613 27.1241226,0.669374194 27.9372516,0.669374194 C28.3436065,0.669374194 28.8434774,0.887858065 29.1248645,1.29463226" id="Fill-13" fill="#333333" fill-rule="nonzero"></path>
            <path d="M116.561187,13.1078161 C120.906123,13.0457516 122.985284,10.5925258 122.985284,6.93533226 C122.985284,3.05923548 120.718252,0.7943 115.998413,0.7943 L109.392735,0.7943 C108.736445,0.7943 108.350639,1.34826774 108.350639,1.99281613 C108.350639,2.52959032 108.597219,2.70110645 108.708348,2.70110645 L116.061316,2.70110645 C119.405671,2.70110645 120.797929,4.37265484 120.797929,6.99823548 C120.797929,9.40449355 119.531058,11.2953645 116.186284,11.2953645 L109.247639,11.2953645 L109.247639,20.1735258 C109.247639,20.8298161 109.559639,21.1426548 110.153445,21.1426548 L110.403381,21.1426548 C111.029058,21.1426548 111.341477,20.7052677 111.341477,20.1735258 L111.341477,13.1078161 L113.873123,13.1078161 L120.436865,20.392429 C120.906123,20.9552032 121.34351,21.1426548 121.750284,21.1426548 C122.625058,21.1426548 123.156381,20.2984935 123.031832,20.1424935 L116.561187,13.1078161 Z" id="Fill-15" fill="#333333" fill-rule="nonzero"></path>
            <path d="M7.26930645,0.794174194 L1.03853226,0.794174194 C0.382241935,0.794174194 0.000209677419,1.39888387 0.000209677419,1.92810968 C0.000209677419,2.45691613 0.201080645,2.70098065 0.339467742,2.70098065 L7.30033871,2.70098065 C10.738629,2.70098065 12.5200484,4.16998065 12.5200484,6.98343226 C12.5200484,9.7650129 10.738629,11.2658839 7.20724194,11.2658839 L0.893016129,11.2658839 L0.893016129,20.1734 C0.893016129,20.8296903 1.20543548,21.142529 1.79924194,21.142529 L2.08062903,21.142529 C2.7058871,21.142529 3.01830645,20.7051419 3.01830645,20.1734 L3.01830645,13.1408194 L7.01895161,13.1408194 C12.0830806,13.1408194 14.7082419,10.9530452 14.7082419,6.92052903 C14.7082419,3.0134 11.9891452,0.794174194 7.26930645,0.794174194" id="Fill-17" fill="#333333" fill-rule="nonzero"></path>
        </g>
    </g>
</svg>