<?xml version="1.0" encoding="UTF-8"?>
<svg width="310px" height="50px" viewBox="0 0 310 50" version="1.1" xmlns="http://www.w3.org/2000/svg" xmlns:xlink="http://www.w3.org/1999/xlink">
    <!-- Generator: Sketch 51.2 (57519) - http://www.bohemiancoding.com/sketch -->
    <title>pixatori_logo_rgb</title>
    <desc>Created with Sketch.</desc>
    <defs>
        <polygon id="path-1" points="0.9919 0.9874 48.9929 0.9874 48.9929 51 0.9919 51"></polygon>
        <polygon id="path-3" points="0.9311 0.5827 6 0.5827 6 49.4047 0.9311 49.4047"></polygon>
    </defs>
    <g id="Page-1" stroke="none" stroke-width="1" fill="none" fill-rule="evenodd">
        <g id="pixatori_logo_rgb" transform="translate(0.000000, -1.000000)">
            <path d="M112.7378,50.1682 C111.7538,49.8392 110.8468,48.7922 111.0138,48.3372 L134.0868,3.1882 C134.5208,2.3362 135.3958,1.8012 136.3508,1.8012 C137.3068,1.8012 138.1818,2.3362 138.6168,3.1882 L160.7478,46.6162 C161.1488,47.4042 161.1118,48.3452 160.6498,49.0992 C160.1878,49.8542 159.3678,50.3132 158.4828,50.3132 L142.5378,50.3132 C141.5828,50.3132 140.7078,49.7762 140.2728,48.9252 L133.5878,35.8072 C132.9498,34.5562 133.6788,33.4542 134.9298,32.8162 C136.1808,32.1772 137.4798,32.2462 138.1178,33.4972 L144.0958,45.2292 L154.3338,45.2292 L136.3508,9.9412 L116.8808,48.1492 C116.3398,49.0642 115.7928,49.5972 114.9158,50.0542 C114.1998,50.4282 113.1778,50.3142 112.7378,50.1682" id="Fill-1" fill="#0099CC"></path>
            <path d="M155.2739,4.429 L155.2739,4.056 C155.2739,2.639 156.0929,1.894 157.5849,1.894 L192.9139,1.894 C194.4049,1.894 195.2249,2.639 195.2249,4.056 L195.2249,4.429 C195.2249,5.771 194.4049,6.515 192.9139,6.515 L177.7839,6.515 L177.7839,48.106 C177.7839,49.671 177.0379,50.417 175.5459,50.417 L174.8769,50.417 C173.4599,50.417 172.7149,49.671 172.7149,48.106 L172.7149,6.515 L157.5849,6.515 C156.0929,6.515 155.2739,5.771 155.2739,4.429" id="Fill-3" fill="#333333"></path>
            <g id="Group-7" transform="translate(200.000000, 0.013000)">
                <mask id="mask-2" fill="white">
                    <use xlink:href="#path-1"></use>
                </mask>
                <g id="Clip-6"></g>
                <path d="M43.7749,26.1054 C43.7749,14.1054 35.8749,5.3844 24.9169,5.3844 C13.9609,5.3844 6.2099,13.8804 6.2099,25.9564 C6.2099,38.0314 14.1099,46.6024 25.0659,46.6024 C36.0219,46.6024 43.7749,38.1794 43.7749,26.1054 M0.9919,26.1054 C0.9919,11.3464 10.9799,0.9874 25.0659,0.9874 C39.2279,0.9874 48.9929,11.1984 48.9929,25.9564 C48.9929,40.7144 39.0789,51.0004 24.9169,51.0004 C10.7549,51.0004 0.9919,40.8634 0.9919,26.1054" id="Fill-5" fill="#333333" mask="url(#mask-2)"></path>
            </g>
            <g id="Group-10" transform="translate(304.000000, 1.013000)">
                <mask id="mask-4" fill="white">
                    <use xlink:href="#path-3"></use>
                </mask>
                <g id="Clip-9"></g>
                <path d="M0.9311,47.0927 L0.9311,2.8937 C0.9311,1.4037 1.6761,0.5827 3.0931,0.5827 L3.7641,0.5827 C5.2531,0.5827 6.0001,1.4037 6.0001,2.8937 L6.0001,47.0927 C6.0001,48.6577 5.2531,49.4047 3.7641,49.4047 L3.0931,49.4047 C1.6761,49.4047 0.9311,48.6577 0.9311,47.0927" id="Fill-8" fill="#333333" mask="url(#mask-4)"></path>
            </g>
            <path d="M46.5796,48.1057 L46.5796,3.9067 C46.5796,2.4167 47.3236,1.5957 48.7406,1.5957 L49.4116,1.5957 C50.9016,1.5957 51.6476,2.4167 51.6476,3.9067 L51.6476,48.1057 C51.6476,49.6707 50.9016,50.4177 49.4116,50.4177 L48.7406,50.4177 C47.3236,50.4177 46.5796,49.6707 46.5796,48.1057" id="Fill-11" fill="#333333"></path>
            <path d="M69.4516,3.0872 L83.2406,22.2412 L97.6276,2.9382 C98.5206,1.7452 99.2656,1.3722 100.0866,1.3722 C101.8006,1.3722 102.9196,3.3852 102.6206,3.7582 L85.9986,25.8192 L102.6206,47.8082 C102.9196,48.1812 101.8756,50.1922 99.9366,50.1922 C98.9676,50.1922 97.8496,49.6712 97.1046,48.7032 L82.8686,29.2492 L68.3346,48.8522 C67.4386,50.0452 66.6936,50.4172 65.8736,50.4172 C64.1596,50.4172 63.0426,48.4042 63.3396,48.0322 L80.1106,25.8192 L63.9356,3.9812 C63.6386,3.6082 64.6806,1.5962 66.6196,1.5962 C67.5886,1.5962 68.7806,2.1172 69.4516,3.0872" id="Fill-13" fill="#333333"></path>
            <path d="M277.9536,31.2571 C288.3146,31.1091 293.2726,25.2591 293.2726,16.5381 C293.2726,7.2951 287.8666,1.8941 276.6116,1.8941 L260.8596,1.8941 C259.2946,1.8941 258.3746,3.2151 258.3746,4.7521 C258.3746,6.0321 258.9626,6.4411 259.2276,6.4411 L276.7616,6.4411 C284.7366,6.4411 288.0566,10.4271 288.0566,16.6881 C288.0566,22.4261 285.0356,26.9351 277.0596,26.9351 L260.5136,26.9351 L260.5136,48.1061 C260.5136,49.6711 261.2576,50.4171 262.6736,50.4171 L263.2696,50.4171 C264.7616,50.4171 265.5066,49.3741 265.5066,48.1061 L265.5066,31.2571 L271.5436,31.2571 L287.1956,48.6281 C288.3146,49.9701 289.3576,50.4171 290.3276,50.4171 C292.4136,50.4171 293.6806,48.4041 293.3836,48.0321 L277.9536,31.2571 Z" id="Fill-15" fill="#333333"></path>
            <path d="M17.3345,1.8938 L2.4765,1.8938 C0.9115,1.8938 0.0005,3.3358 0.0005,4.5978 C0.0005,5.8588 0.4795,6.4408 0.8095,6.4408 L17.4085,6.4408 C25.6075,6.4408 29.8555,9.9438 29.8555,16.6528 C29.8555,23.2858 25.6075,26.8648 17.1865,26.8648 L2.1295,26.8648 L2.1295,48.1058 C2.1295,49.6708 2.8745,50.4168 4.2905,50.4168 L4.9615,50.4168 C6.4525,50.4168 7.1975,49.3738 7.1975,48.1058 L7.1975,31.3358 L16.7375,31.3358 C28.8135,31.3358 35.0735,26.1188 35.0735,16.5028 C35.0735,7.1858 28.5895,1.8938 17.3345,1.8938" id="Fill-17" fill="#333333"></path>
        </g>
    </g>
</svg>